<?xml version="1.0" encoding="UTF-8" standalone="no"?>
<svg
   xmlns:dc="http://purl.org/dc/elements/1.1/"
   xmlns:cc="http://creativecommons.org/ns#"
   xmlns:rdf="http://www.w3.org/1999/02/22-rdf-syntax-ns#"
   xmlns:svg="http://www.w3.org/2000/svg"
   xmlns="http://www.w3.org/2000/svg"
   width="6.3499999mm"
   height="6.3499999mm"
   viewBox="0 0 6.3499999 6.3499999"
   version="1.1"
   id="svg8">
  <defs
     id="defs2" />
  <metadata
     id="metadata5">
    <rdf:RDF>
      <cc:Work
         rdf:about="">
        <dc:format>image/svg+xml</dc:format>
        <dc:type
           rdf:resource="http://purl.org/dc/dcmitype/StillImage" />
        <dc:title></dc:title>
      </cc:Work>
    </rdf:RDF>
  </metadata>
  <g
     id="layer1"
     transform="translate(-130.01436,-112.43847)">
    <g
       id="g940">
      <path
         d="m 130.01436,112.43847 h 6.35 v 6.35 h -6.35 z"
         fill="none"
         id="path833"
         style="stroke-width:0.264583" />
      <path
         id="path835"
         style="fill:#aa0000;stroke-width:0.264583"
         d="m 133.18951,112.96778 c -1.02394,0 -1.85209,0.82814 -1.85209,1.85208 0,1.38906 1.85209,3.43959 1.85209,3.43959 0,0 1.85208,-2.05053 1.85208,-3.43959 0,-1.02394 -0.82814,-1.85208 -1.85208,-1.85208 z m 0.0129,0.86196 a 1.0512463,1.0512463 0 0 1 0.0103,0 1.0512463,1.0512463 0 0 1 1.05162,1.05162 1.0512463,1.0512463 0 0 1 -1.05162,1.0511 1.0512463,1.0512463 0 0 1 -1.0511,-1.0511 1.0512463,1.0512463 0 0 1 1.04076,-1.05162 z" />
      <g
         id="g933"
         transform="translate(-0.0116717)">
        <rect
           style="fill:#aa0000;stroke:none;stroke-width:0.1;stroke-linecap:round;stroke-linejoin:round"
           id="rect896-9"
           width="0.26536"
           height="0.26536998"
           x="133.0685"
           y="114.22914" />
        <rect
           style="fill:#aa0000;stroke:none;stroke-width:0.173291;stroke-linecap:round;stroke-linejoin:round"
           id="rect896-1-4"
           width="0.26536"
           height="0.79689902"
           x="133.0685"
           y="114.75989" />
      </g>
    </g>
  </g>
</svg>
